<svg xmlns="http://www.w3.org/2000/svg" viewBox="0 0 400 300">
  <defs>
    <linearGradient id="bg5" x1="0%" y1="0%" x2="100%" y2="100%">
      <stop offset="0%" style="stop-color:#003366;stop-opacity:0.08"/>
      <stop offset="100%" style="stop-color:#f0c040;stop-opacity:0.05"/>
    </linearGradient>
  </defs>
  <rect width="400" height="300" fill="url(#bg5)" rx="12"/>
  <!-- Seat layout representation -->
  <rect x="100" y="30" width="200" height="30" fill="#003366" rx="6"/>
  <text x="200" y="50" font-family="Arial,sans-serif" font-size="12" fill="white" text-anchor="middle" font-weight="bold">🚌 DRIVER</text>
  <!-- Seats row 1 -->
  <rect x="115" y="75" width="38" height="32" fill="#28a745" rx="5"/>
  <text x="134" y="95" font-family="Arial,sans-serif" font-size="11" fill="white" text-anchor="middle">01</text>
  <rect x="165" y="75" width="38" height="32" fill="#28a745" rx="5"/>
  <text x="184" y="95" font-family="Arial,sans-serif" font-size="11" fill="white" text-anchor="middle">02</text>
  <rect x="225" y="75" width="38" height="32" fill="#28a745" rx="5"/>
  <text x="244" y="95" font-family="Arial,sans-serif" font-size="11" fill="white" text-anchor="middle">03</text>
  <!-- Seats row 2 -->
  <rect x="115" y="118" width="38" height="32" fill="#28a745" rx="5"/>
  <text x="134" y="138" font-family="Arial,sans-serif" font-size="11" fill="white" text-anchor="middle">04</text>
  <rect x="165" y="118" width="38" height="32" fill="#dc3545" rx="5"/>
  <text x="184" y="138" font-family="Arial,sans-serif" font-size="11" fill="white" text-anchor="middle">05</text>
  <rect x="225" y="118" width="38" height="32" fill="#28a745" rx="5"/>
  <text x="244" y="138" font-family="Arial,sans-serif" font-size="11" fill="white" text-anchor="middle">06</text>
  <!-- Seats row 3 -->
  <rect x="115" y="161" width="38" height="32" fill="#003366" rx="5"/>
  <text x="134" y="181" font-family="Arial,sans-serif" font-size="11" fill="white" text-anchor="middle">07</text>
  <rect x="165" y="161" width="38" height="32" fill="#28a745" rx="5"/>
  <text x="184" y="181" font-family="Arial,sans-serif" font-size="11" fill="white" text-anchor="middle">08</text>
  <rect x="225" y="161" width="38" height="32" fill="#dc3545" rx="5"/>
  <text x="244" y="181" font-family="Arial,sans-serif" font-size="11" fill="white" text-anchor="middle">09</text>
  <!-- Seats row 4 -->
  <rect x="115" y="204" width="38" height="32" fill="#28a745" rx="5"/>
  <text x="134" y="224" font-family="Arial,sans-serif" font-size="11" fill="white" text-anchor="middle">10</text>
  <rect x="165" y="204" width="38" height="32" fill="#28a745" rx="5"/>
  <text x="184" y="224" font-family="Arial,sans-serif" font-size="11" fill="white" text-anchor="middle">11</text>
  <rect x="225" y="204" width="38" height="32" fill="#28a745" rx="5"/>
  <text x="244" y="224" font-family="Arial,sans-serif" font-size="11" fill="white" text-anchor="middle">12</text>
  <!-- Legend -->
  <rect x="110" y="255" width="18" height="14" fill="#28a745" rx="3"/>
  <text x="133" y="266" font-family="Arial,sans-serif" font-size="10" fill="#666">Available</text>
  <rect x="200" y="255" width="18" height="14" fill="#dc3545" rx="3"/>
  <text x="223" y="266" font-family="Arial,sans-serif" font-size="10" fill="#666">Booked</text>
  <rect x="280" y="255" width="18" height="14" fill="#003366" rx="3"/>
  <text x="303" y="266" font-family="Arial,sans-serif" font-size="10" fill="#666">Selected</text>
</svg>
